<svg xmlns="http://www.w3.org/2000/svg" version="1.1" xmlns:xlink="http://www.w3.org/1999/xlink"
  xmlns:svgjs="http://svgjs.dev/svgjs" width="1000" height="242" viewBox="0 0 1000 242">
  <g transform="matrix(1,0,0,1,-0.6060604678048662,-0.5743264138620674)"><svg viewBox="0 0 396 96"
      data-background-color="#ffffff" preserveAspectRatio="xMidYMid meet" height="242" width="1000"
      xmlns="http://www.w3.org/2000/svg" xmlns:xlink="http://www.w3.org/1999/xlink">
      <defs></defs>
      <g id="tight-bounds" transform="matrix(1,0,0,1,0.24000005474934483,0.22783196582957999)"><svg
          viewBox="0 0 395.5199999999999 95.54433606834085" height="95.54433606834085" width="395.5199999999999">
          <g><svg viewBox="0 0 576.4189274660826 139.24343578573016" height="95.54433606834085"
              width="395.5199999999999">
              <g>
                <rect width="5.771637362390292" height="139.24343578573016" x="160.01829177282764" y="0" fill="#8dc73f"
                  opacity="1" stroke-width="0" stroke="transparent" fill-opacity="1" class="rect-o-0"
                  data-fill-palette-color="primary" rx="1%" id="o-0" data-palette-color="#8dc73f"></rect>
              </g>
              <g transform="matrix(1,0,0,1,180.89892746608257,0.3463767059346452)"><svg
                  viewBox="0 0 395.52 138.55068237386087" height="138.55068237386087" width="395.52">
                  <g><svg viewBox="0 0 395.52 138.55068237386087" height="138.55068237386087" width="395.52">
                      <g><svg viewBox="0 0 395.52 138.55068237386087" height="138.55068237386087" width="395.52">
                          <g transform="matrix(1,0,0,1,0,0)"><svg width="395.52"
                              viewBox="2.4000000953674316 -35.70000076293945 224.95001220703125 75.80000305175781"
                              height="138.55068237386087" data-palette-color="#8dc73f"><svg></svg><svg></svg>
                              <g class="undefined-text-0" data-fill-palette-color="primary" id="text-0">
                                <path id="text-icampus"
                                  d="M8.75 0h-4.75v-35h4.75zM32.35 0.7v0c-3.4 0-6.43-0.747-9.09-2.24-2.66-1.493-4.75-3.6-6.27-6.32-1.527-2.727-2.29-5.94-2.29-9.64v0c0-3.7 0.77-6.913 2.31-9.64 1.54-2.727 3.657-4.833 6.35-6.32 2.693-1.493 5.757-2.24 9.19-2.24v0c1.787 0 3.487 0.19 5.1 0.57 1.62 0.387 3.037 0.88 4.25 1.48v0l-0.5 4.4c-1.247-0.6-2.62-1.11-4.12-1.53-1.5-0.413-3.093-0.62-4.78-0.62v0c-2.747 0-5.053 0.62-6.92 1.86-1.873 1.24-3.287 2.91-4.24 5.01-0.96 2.1-1.44 4.443-1.44 7.03v0c0 2.58 0.47 4.92 1.41 7.02 0.947 2.1 2.347 3.773 4.2 5.02 1.86 1.24 4.157 1.86 6.89 1.86v0c1.733 0 3.337-0.187 4.81-0.56 1.473-0.38 2.87-0.893 4.19-1.54v0l0.5 4.4c-1.247 0.567-2.657 1.043-4.23 1.43-1.56 0.38-3.333 0.57-5.32 0.57zM66.45-13.75v4.3h-15v-4.3zM69 0l-10.75-30.35h1.4l-10.75 30.35h-5l12.55-35h5l12.55 35zM81.75 0h-5l4.7-35h4.05l9.2 17.35 9.1-17.35h4.1l4.65 35h-5l-3.55-28.55 1.25 0.2-10.5 20.05-10.7-20.05 1.25-0.2zM123.7 0h-5v-35h11.55c2.347 0 4.413 0.373 6.2 1.12 1.787 0.753 3.173 1.963 4.16 3.63 0.993 1.667 1.49 3.867 1.49 6.6v0c0 2.68-0.497 4.86-1.49 6.54-0.987 1.673-2.373 2.9-4.16 3.68-1.787 0.787-3.853 1.18-6.2 1.18v0h-6.55zM123.7-30.75v14.25h5.85c2.553 0 4.467-0.58 5.74-1.74 1.273-1.16 1.91-2.947 1.91-5.36v0c0-2.433-0.603-4.233-1.81-5.4-1.213-1.167-3.16-1.75-5.84-1.75v0zM161.4 0.7v0c-3.287 0-6-0.63-8.14-1.89-2.14-1.26-3.737-3.05-4.79-5.37-1.047-2.327-1.57-5.09-1.57-8.29v0-20.15h4.75v18.85c0 1.6 0.123 3.15 0.37 4.65 0.253 1.5 0.717 2.84 1.39 4.02 0.673 1.187 1.657 2.13 2.95 2.83 1.293 0.7 2.973 1.05 5.04 1.05v0c2.08 0 3.763-0.35 5.05-1.05 1.287-0.7 2.267-1.647 2.94-2.84 0.673-1.193 1.133-2.54 1.38-4.04 0.253-1.5 0.38-3.04 0.38-4.62v0-18.85h4.75v20.15c0 3.2-0.527 5.963-1.58 8.29-1.047 2.32-2.64 4.11-4.78 5.37-2.147 1.26-4.86 1.89-8.14 1.89zM193.5 0.7v0c-1.453 0-2.903-0.107-4.35-0.32-1.453-0.22-2.793-0.5-4.02-0.84-1.233-0.347-2.26-0.71-3.08-1.09v0l0.65-5.05c0.9 0.433 1.987 0.883 3.26 1.35 1.28 0.467 2.66 0.857 4.14 1.17 1.48 0.32 2.98 0.48 4.5 0.48v0c2.247 0 4.033-0.413 5.36-1.24 1.327-0.827 1.99-2.113 1.99-3.86v0c0-1.32-0.333-2.4-1-3.24-0.667-0.84-1.67-1.56-3.01-2.16-1.34-0.6-3.02-1.2-5.04-1.8v0c-1.913-0.567-3.68-1.237-5.3-2.01-1.613-0.773-2.91-1.817-3.89-3.13-0.973-1.307-1.46-3.043-1.46-5.21v0c0-1.853 0.48-3.49 1.44-4.91 0.96-1.427 2.367-2.54 4.22-3.34 1.86-0.8 4.14-1.2 6.84-1.2v0c2.3 0 4.413 0.25 6.34 0.75 1.92 0.5 3.507 1.05 4.76 1.65v0l-0.5 5.05c-1.9-1.133-3.713-1.943-5.44-2.43-1.727-0.48-3.513-0.72-5.36-0.72v0c-2.053 0-3.75 0.383-5.09 1.15-1.34 0.767-2.01 2.017-2.01 3.75v0c0 1.167 0.3 2.12 0.9 2.86 0.6 0.74 1.493 1.373 2.68 1.9 1.18 0.527 2.653 1.057 4.42 1.59v0c2.433 0.733 4.523 1.57 6.27 2.51 1.753 0.94 3.097 2.1 4.03 3.48 0.933 1.373 1.4 3.077 1.4 5.11v0c0 1.5-0.283 2.85-0.85 4.05-0.567 1.2-1.417 2.223-2.55 3.07-1.133 0.853-2.553 1.507-4.26 1.96-1.707 0.447-3.703 0.67-5.99 0.67z"
                                  data-fill-palette-color="primary" fill="#8dc73f" opacity="1"></path>
                                <path id="text-manager"
                                  d="M7.4 39.4h-5l4.7-35h4.05l9.2 17.35 9.1-17.35h4.1l4.65 35h-5l-3.55-28.55 1.25 0.2-10.5 20.05-10.7-20.05 1.25-0.2zM63.5 25.65v4.3h-15v-4.3zM66.05 39.4l-10.75-30.35h1.4l-10.75 30.35h-5l12.55-35h5l12.55 35zM80.15 39.4h-4.75v-35h5.15l17.25 26.2v-26.2h4.8v35h-4.05l-18.4-27.65zM129.5 25.65v4.3h-15v-4.3zM132.05 39.4l-10.75-30.35h1.4l-10.75 30.35h-5l12.55-35h5l12.55 35zM155.95 40.1v0c-3.233 0-6.147-0.747-8.74-2.24-2.593-1.493-4.643-3.607-6.15-6.34-1.507-2.733-2.26-5.957-2.26-9.67v0c0-3.687 0.78-6.887 2.34-9.6 1.553-2.72 3.693-4.823 6.42-6.31 2.727-1.493 5.84-2.24 9.34-2.24v0c1.88 0 3.677 0.197 5.39 0.59 1.707 0.393 3.193 0.863 4.46 1.41v0l-0.45 4.15c-1.367-0.533-2.817-0.977-4.35-1.33-1.533-0.347-3.167-0.52-4.9-0.52v0c-2.987 0-5.44 0.62-7.36 1.86-1.927 1.24-3.357 2.91-4.29 5.01-0.933 2.1-1.4 4.443-1.4 7.03v0c0 2.667 0.473 5.047 1.42 7.14 0.953 2.087 2.413 3.737 4.38 4.95 1.967 1.207 4.467 1.81 7.5 1.81v0c0.753 0 1.687-0.067 2.8-0.2 1.12-0.133 2.137-0.383 3.05-0.75v0-8.7h-5.5v-4.3h10.25v15.6c-1.367 0.747-3.067 1.377-5.1 1.89-2.033 0.507-4.317 0.76-6.85 0.76zM196.25 39.4h-21.8v-35h21.35v4.3h-16.6v10.25h13.2v4.3h-13.2v11.85h17.05zM207.15 39.4h-5v-35h11.35c2.433 0 4.557 0.373 6.37 1.12 1.82 0.753 3.23 1.913 4.23 3.48 1 1.567 1.5 3.583 1.5 6.05v0c0 2.4-0.52 4.41-1.56 6.03-1.047 1.613-2.56 2.887-4.54 3.82v0l7.85 14.5h-5.8l-7.1-13.65c-0.053 0-0.097 0-0.13 0-0.033 0-0.073 0-0.12 0v0h-7.05zM207.15 8.65v12.85h6.3c2.38 0 4.177-0.577 5.39-1.73 1.207-1.147 1.81-2.72 1.81-4.72v0c0-2.033-0.603-3.61-1.81-4.73-1.213-1.113-3.01-1.67-5.39-1.67v0z"
                                  data-fill-palette-color="primary" fill="#8dc73f" opacity="1"></path>
                              </g>
                            </svg></g>
                        </svg></g>
                    </svg></g>
                </svg></g>
              <g transform="matrix(1,0,0,1,0,0.3463767059346452)"><svg viewBox="0 0 144.909293441963 138.55068237386087"
                  height="138.55068237386087" width="144.909293441963">
                  <g><svg xmlns="http://www.w3.org/2000/svg" xmlns:xlink="http://www.w3.org/1999/xlink" version="1.1"
                      x="0" y="0" viewBox="6.900000095367432 8.699999809265137 86.60000610351562 82.80000305175781"
                      style="enable-background:new 0 0 100 100;" xml:space="preserve" height="138.55068237386087"
                      width="144.909293441963" class="icon-icon-0" data-fill-palette-color="accent" id="icon-0">
                      <g fill="#224e3f" data-fill-palette-color="accent">
                        <g fill="#224e3f" data-fill-palette-color="accent">
                          <path
                            d="M93.5 33.3H6.9v-9.8L50.2 8.7l43.3 14.8V33.3zM10.6 29.5h79.1v-3.3L50.2 12.7 10.6 26.2V29.5z"
                            fill="#224e3f" data-fill-palette-color="accent"></path>
                        </g>
                        <g fill="#224e3f" data-fill-palette-color="accent">
                          <path
                            d="M93.5 91.5H6.9v-8.4c0-5.2 4.2-9.4 9.4-9.4h67.8c5.2 0 9.4 4.2 9.4 9.4V91.5zM10.6 87.7h79.1V83c0-3.1-2.5-5.7-5.7-5.7H16.3c-3.1 0-5.7 2.5-5.7 5.7C10.6 83 10.6 87.7 10.6 87.7z"
                            fill="#224e3f" data-fill-palette-color="accent"></path>
                        </g>
                        <g fill="#224e3f" data-fill-palette-color="accent">
                          <path d="M34.3 77.4H19.2V29.5h15.1V77.4zM23 73.6h7.6V33.3H23V73.6z" fill="#224e3f"
                            data-fill-palette-color="accent"></path>
                        </g>
                        <g fill="#224e3f" data-fill-palette-color="accent">
                          <path d="M57.7 77.4H42.6V29.5h15.1V77.4zM46.4 73.6h7.6V33.3h-7.6V73.6z" fill="#224e3f"
                            data-fill-palette-color="accent"></path>
                        </g>
                        <g fill="#224e3f" data-fill-palette-color="accent">
                          <path d="M81.2 77.4H66.1V29.5h15.1V77.4zM69.8 73.6h7.6V33.3h-7.6V73.6z" fill="#224e3f"
                            data-fill-palette-color="accent"></path>
                        </g>
                      </g>
                    </svg></g>
                </svg></g>
            </svg></g>
        </svg>
        <rect width="395.5199999999999" height="95.54433606834085" fill="none" stroke="none" visibility="hidden"></rect>
      </g>
    </svg></g>
</svg>